<?xml version="1.0" encoding="UTF-8" standalone="no"?>
<svg
   xmlns:dc="http://purl.org/dc/elements/1.1/"
   xmlns:cc="http://creativecommons.org/ns#"
   xmlns:rdf="http://www.w3.org/1999/02/22-rdf-syntax-ns#"
   xmlns:svg="http://www.w3.org/2000/svg"
   xmlns="http://www.w3.org/2000/svg"
   xmlns:sodipodi="http://sodipodi.sourceforge.net/DTD/sodipodi-0.dtd"
   xmlns:inkscape="http://www.inkscape.org/namespaces/inkscape"
   width="27.46843"
   height="27.459007"
   id="svg3381"
   version="1.1"
   inkscape:version="1.0.1 (3bc2e813f5, 2020-09-07)"
   sodipodi:docname="codepen.svg">
  <defs
     id="defs3383" />
  <sodipodi:namedview
     id="base"
     pagecolor="#ffffff"
     bordercolor="#666666"
     borderopacity="1.0"
     inkscape:pageopacity="0.0"
     inkscape:pageshadow="2"
     inkscape:zoom="5.6"
     inkscape:cx="13.73421"
     inkscape:cy="1.3673175"
     inkscape:document-units="px"
     inkscape:current-layer="layer1"
     showgrid="false"
     inkscape:window-width="1920"
     inkscape:window-height="1017"
     inkscape:window-x="-8"
     inkscape:window-y="-8"
     inkscape:window-maximized="1"
     inkscape:document-rotation="0"
     fit-margin-top="0"
     fit-margin-left="0"
     fit-margin-right="0"
     fit-margin-bottom="0" />
  <metadata
     id="metadata3386">
    <rdf:RDF>
      <cc:Work
         rdf:about="">
        <dc:format>image/svg+xml</dc:format>
        <dc:type
           rdf:resource="http://purl.org/dc/dcmitype/StillImage" />
        <dc:title></dc:title>
      </cc:Work>
    </rdf:RDF>
  </metadata>
  <g
     inkscape:label="Layer 1"
     inkscape:groupmode="layer"
     id="layer1"
     transform="translate(-361.26579,-518.63268)">
    <path
       inkscape:connector-curvature="0"
       id="path3624"
       d="m 374.49034,545.96652 c -0.14754,-0.0709 -3.1169,-2.03216 -6.59859,-4.35847 l -6.33034,-4.22967 -0.14781,-0.28779 -0.14781,-0.28778 v -4.44064 -4.44064 l 0.14781,-0.28778 0.14781,-0.28779 6.33034,-4.22967 c 3.48169,-2.32632 6.45105,-4.28764 6.59859,-4.35848 0.34738,-0.16681 0.67182,-0.16684 1.01933,-7e-5 0.14754,0.0708 3.11682,2.0321 6.59841,4.35847 l 6.33015,4.22977 0.148,0.28778 0.14799,0.28779 v 4.44064 4.44064 l -0.14799,0.28778 -0.148,0.28778 -6.33015,4.22978 c -3.48159,2.32638 -6.45087,4.28769 -6.59841,4.35849 -0.34751,0.16674 -0.67195,0.1667 -1.01933,-8e-5 z m -0.67062,-6.03103 v -2.72733 l -2.55375,-1.70239 c -1.40455,-0.93633 -2.58149,-1.69094 -2.6154,-1.67694 -0.16718,0.069 -3.97805,2.67399 -3.97805,2.71921 0,0.0495 9.02174,6.10351 9.10696,6.11117 0.0221,0.002 0.0403,-1.22369 0.0403,-2.72372 z m 6.97446,-0.31269 c 2.50808,-1.67202 4.56014,-3.05628 4.56014,-3.07611 0,-0.0375 -3.9907,-2.73599 -4.04612,-2.73599 -0.0173,0 -1.17812,0.76443 -2.57966,1.69873 l -2.54825,1.69873 v 2.72733 c 0,1.50003 0.0121,2.72734 0.0268,2.72734 0.0148,0 2.07893,-1.36802 4.58701,-3.04003 z m -3.70729,-5.86575 c 1.12179,-0.75243 2.03953,-1.38013 2.03941,-1.39488 -7e-5,-0.0148 -0.9267,-0.64623 -2.05909,-1.40327 l -2.05888,-1.37646 -2.06797,1.37646 c -1.13738,0.75704 -2.06757,1.38851 -2.0671,1.40327 10e-4,0.0403 4.0941,2.7829 4.13696,2.77219 0.0204,-0.005 0.95488,-0.62488 2.07667,-1.37731 z m -11.98501,-0.41102 c 0.78185,-0.52113 1.42154,-0.96387 1.42154,-0.98386 0,-0.0357 -2.8171,-1.93138 -2.87007,-1.93138 -0.0149,0 -0.027,0.86912 -0.027,1.93138 0,1.06225 0.0121,1.93137 0.027,1.93137 0.0149,0 0.66668,-0.42638 1.44853,-0.94751 z m 21.27177,-0.98386 c 0,-1.06226 -0.0121,-1.93138 -0.027,-1.93138 -0.0697,0 -2.87085,1.9022 -2.85796,1.9408 0.0163,0.0487 2.78042,1.91279 2.84471,1.91842 0.0221,0.002 0.0403,-0.86559 0.0403,-1.92784 z m -15.10218,-3.14726 2.54825,-1.69873 v -2.72734 c 0,-1.50003 -0.0121,-2.72733 -0.0269,-2.72733 -0.07,0 -9.14779,6.08729 -9.13499,6.12566 0.0166,0.0498 3.96273,2.7205 4.02503,2.72412 0.0222,10e-4 1.18704,-0.76208 2.58858,-1.69638 z m 12.07396,0.35338 c 1.10489,-0.73995 2.00889,-1.36366 2.00889,-1.38604 0,-0.0383 -9.08982,-6.12074 -9.14715,-6.12074 -0.0148,0 -0.0269,1.2273 -0.0269,2.72733 v 2.72734 l 2.53492,1.69509 c 1.39422,0.93231 2.55438,1.69674 2.57814,1.69874 0.0238,0.002 0.94719,-0.60178 2.05208,-1.34172 z"
       style="fill:#FFFFFF" />
  </g>
</svg>
