<?xml version="1.0" encoding="UTF-8" standalone="no"?>
<svg
   xmlns:dc="http://purl.org/dc/elements/1.1/"
   xmlns:cc="http://creativecommons.org/ns#"
   xmlns:rdf="http://www.w3.org/1999/02/22-rdf-syntax-ns#"
   xmlns:svg="http://www.w3.org/2000/svg"
   xmlns="http://www.w3.org/2000/svg"
   xmlns:sodipodi="http://sodipodi.sourceforge.net/DTD/sodipodi-0.dtd"
   xmlns:inkscape="http://www.inkscape.org/namespaces/inkscape"
   width="23.671989"
   height="25.335777"
   id="svg3433"
   version="1.1"
   inkscape:version="1.0.1 (3bc2e813f5, 2020-09-07)"
   sodipodi:docname="github.svg">
  <defs
     id="defs3435" />
  <sodipodi:namedview
     id="base"
     pagecolor="#ffffff"
     bordercolor="#666666"
     borderopacity="1.0"
     inkscape:pageopacity="0.0"
     inkscape:pageshadow="2"
     inkscape:zoom="3.959798"
     inkscape:cx="11.835991"
     inkscape:cy="0.30570729"
     inkscape:document-units="px"
     inkscape:current-layer="layer1"
     showgrid="false"
     inkscape:window-width="1920"
     inkscape:window-height="1017"
     inkscape:window-x="-8"
     inkscape:window-y="-8"
     inkscape:window-maximized="1"
     inkscape:document-rotation="0"
     fit-margin-top="0"
     fit-margin-left="0"
     fit-margin-right="0"
     fit-margin-bottom="0" />
  <metadata
     id="metadata3438">
    <rdf:RDF>
      <cc:Work
         rdf:about="">
        <dc:format>image/svg+xml</dc:format>
        <dc:type
           rdf:resource="http://purl.org/dc/dcmitype/StillImage" />
        <dc:title></dc:title>
      </cc:Work>
    </rdf:RDF>
  </metadata>
  <g
     inkscape:label="Layer 1"
     inkscape:groupmode="layer"
     id="layer1"
     transform="translate(-363.16401,-519.69429)">
    <path
       sodipodi:nodetypes="ssssssssssscssscssssscscscscsscsssssscsccccs"
       inkscape:connector-curvature="0"
       id="path3612"
       d="m 370.93304,543.61966 c -0.0262,-1.34477 -0.0367,-1.40923 -0.22541,-1.38572 -1.62939,0.20302 -2.67071,0.10554 -3.53139,-0.3306 -0.81946,-0.41526 -1.12587,-0.76929 -1.72091,-1.98841 -0.56421,-1.15596 -0.89832,-1.57463 -1.92949,-2.41786 -0.38356,-0.31365 -0.4205,-0.37715 -0.30227,-0.51961 0.20186,-0.24322 0.95262,-0.20694 1.54558,0.0747 0.50215,0.23849 1.21734,0.91474 1.63354,1.54458 0.86985,1.31637 2.0189,1.78982 3.50167,1.44281 0.93149,-0.21799 1.32804,-0.42441 1.51401,-0.78808 0.0867,-0.16957 0.28705,-0.47297 0.44518,-0.67421 l 0.28751,-0.36589 -0.3753,-0.0649 c -4.84509,-0.83766 -6.90841,-2.70635 -7.60802,-6.89037 -0.38776,-2.31895 0.12226,-4.76559 1.30669,-6.26838 l 0.39003,-0.49487 -0.14425,-0.3959 c -0.0955,-0.26218 -0.14678,-0.81378 -0.15175,-1.63308 -0.006,-1.02083 0.0314,-1.36077 0.21474,-1.9439 0.25691,-0.81692 0.37493,-0.88678 1.22754,-0.72653 1.08724,0.20433 2.33389,0.73422 3.42585,1.45614 l 0.52076,0.34429 0.66693,-0.1595 c 1.1444,-0.27367 2.09298,-0.36353 3.83413,-0.36321 1.74136,3e-4 2.66274,0.087 3.87389,0.36449 l 0.7067,0.1619 0.46254,-0.31823 c 1.12149,-0.7716 3.20432,-1.57832 4.09232,-1.58502 0.28137,-0.002 0.46981,0.40732 0.6707,1.45731 0.18427,0.96305 0.17848,1.99059 -0.0155,2.76428 l -0.15634,0.62339 0.34233,0.42217 c 0.49933,0.61579 0.91311,1.40922 1.17508,2.2532 0.2053,0.66144 0.22986,0.93099 0.22541,2.47436 -0.005,1.88116 -0.16785,2.84219 -0.67364,3.98589 -1.04622,2.36571 -3.46919,3.98562 -6.5465,4.37678 -0.27219,0.0346 -0.61863,0.0862 -0.76987,0.1145 l -0.27499,0.0516 0.31432,0.35799 c 0.17288,0.19689 0.4525,0.6496 0.6214,1.00601 0.64098,1.53134 0.35196,3.96497 0.37204,5.44829 h -4.45887 -4.45888 z"
       style="fill:#FFFFFF" />
  </g>
</svg>
