<?xml version="1.0" encoding="UTF-8" standalone="no"?>
<svg
   xmlns:dc="http://purl.org/dc/elements/1.1/"
   xmlns:cc="http://creativecommons.org/ns#"
   xmlns:rdf="http://www.w3.org/1999/02/22-rdf-syntax-ns#"
   xmlns:svg="http://www.w3.org/2000/svg"
   xmlns="http://www.w3.org/2000/svg"
   xmlns:sodipodi="http://sodipodi.sourceforge.net/DTD/sodipodi-0.dtd"
   xmlns:inkscape="http://www.inkscape.org/namespaces/inkscape"
   width="26.338369"
   height="26.328491"
   id="svg3355"
   version="1.1"
   inkscape:version="1.0.1 (3bc2e813f5, 2020-09-07)"
   sodipodi:docname="instagram.svg">
  <defs
     id="defs3357" />
  <sodipodi:namedview
     id="base"
     pagecolor="#ffffff"
     bordercolor="#666666"
     borderopacity="1.0"
     inkscape:pageopacity="0.0"
     inkscape:pageshadow="2"
     inkscape:zoom="0.98994949"
     inkscape:cx="13.16918"
     inkscape:cy="0.80206"
     inkscape:document-units="px"
     inkscape:current-layer="layer1"
     showgrid="false"
     inkscape:window-width="1920"
     inkscape:window-height="1017"
     inkscape:window-x="-8"
     inkscape:window-y="-8"
     inkscape:window-maximized="1"
     inkscape:document-rotation="0"
     fit-margin-top="0"
     fit-margin-left="0"
     fit-margin-right="0"
     fit-margin-bottom="0" />
  <metadata
     id="metadata3360">
    <rdf:RDF>
      <cc:Work
         rdf:about="">
        <dc:format>image/svg+xml</dc:format>
        <dc:type
           rdf:resource="http://purl.org/dc/dcmitype/StillImage" />
        <dc:title></dc:title>
      </cc:Work>
    </rdf:RDF>
  </metadata>
  <g
     inkscape:label="Layer 1"
     inkscape:groupmode="layer"
     id="layer1"
     transform="translate(-361.83082,-519.19794)">
    <path
       style="fill:#FFFFFF;fill-opacity:1"
       d="m 369.65934,545.47129 c -1.6631,-0.0863 -2.92669,-0.38451 -4.00808,-0.94597 -0.65179,-0.33842 -1.14685,-0.71623 -1.718,-1.31114 -0.7575,-0.78904 -1.1882,-1.512 -1.55658,-2.61293 -0.46243,-1.38195 -0.54586,-2.6405 -0.54586,-8.23413 0,-5.60532 0.083,-6.85099 0.54965,-8.24544 0.39064,-1.16741 0.90871,-1.99204 1.77248,-2.82129 0.78904,-0.75751 1.512,-1.1882 2.61293,-1.55659 1.38194,-0.46243 2.6405,-0.54586 8.23412,-0.54586 5.59363,0 6.85218,0.0834 8.23412,0.54586 1.10093,0.36839 1.82389,0.79908 2.61293,1.55659 0.86377,0.82925 1.38185,1.65388 1.77249,2.82129 0.46661,1.39445 0.54965,2.64012 0.54965,8.24544 0,5.60533 -0.083,6.851 -0.54965,8.24545 -0.39064,1.16741 -0.90871,1.99204 -1.77249,2.82128 -0.78904,0.75752 -1.512,1.18821 -2.61293,1.55659 -0.81834,0.27384 -1.70956,0.41375 -3.09019,0.48512 -1.35492,0.07 -9.1135,0.0669 -10.48459,-0.004 z m 10.19247,-2.36031 c 1.25828,-0.0616 1.94477,-0.16156 2.62806,-0.38281 1.54221,-0.49935 2.57501,-1.6227 2.99414,-3.25662 0.27609,-1.07628 0.29816,-1.60221 0.29816,-7.10443 0,-5.50221 -0.0221,-6.02814 -0.29816,-7.10442 -0.45058,-1.75649 -1.61309,-2.91901 -3.36958,-3.36958 -1.07628,-0.27609 -1.60221,-0.29816 -7.10443,-0.29816 -5.50221,0 -6.02815,0.0221 -7.10443,0.29816 -1.75648,0.45057 -2.919,1.61309 -3.36957,3.36958 -0.2761,1.07628 -0.29816,1.60221 -0.29816,7.10442 0,3.93443 0.0182,5.27801 0.079,5.83372 0.17714,1.61842 0.58554,2.6102 1.41738,3.44205 0.97658,0.97658 2.093,1.35875 4.27956,1.46498 1.30903,0.0636 8.56497,0.0659 9.848,0.003 z m -6.03588,-4.07884 c -2.80222,-0.50023 -5.00238,-2.71891 -5.48567,-5.53183 -0.35933,-2.09148 0.30436,-4.25947 1.77191,-5.78811 0.59057,-0.61515 1.06686,-0.97497 1.77664,-1.34216 1.97704,-1.0228 4.26534,-1.0228 6.24239,0 2.59716,1.34361 4.04344,4.24969 3.54855,7.13027 -0.29161,1.69729 -1.25241,3.27191 -2.62256,4.298 -0.4838,0.36231 -1.35227,0.81051 -1.93897,1.00066 -0.98858,0.32041 -2.28805,0.41244 -3.29229,0.23317 z m 2.31039,-2.41975 c 1.19313,-0.32212 2.25212,-1.19626 2.79888,-2.31032 0.34364,-0.70019 0.43146,-1.09404 0.43146,-1.93495 0,-0.8409 -0.0878,-1.23475 -0.43146,-1.93494 -0.55183,-1.12439 -1.60105,-1.98497 -2.82776,-2.31937 -0.51791,-0.14118 -1.67697,-0.14118 -2.19487,0 -1.22679,0.33442 -2.27625,1.19524 -2.82762,2.31937 -0.29151,0.59432 -0.40347,1.02267 -0.44591,1.70606 -0.13238,2.13168 1.34083,4.0486 3.4792,4.52706 0.49309,0.11033 1.51243,0.0836 2.01808,-0.0529 z m 5.50466,-9.7527 c -0.80944,-0.22624 -1.31835,-1.03935 -1.14792,-1.8341 0.077,-0.35899 0.13095,-0.46204 0.39481,-0.7541 0.59682,-0.66061 1.63614,-0.68407 2.26899,-0.0512 0.46908,0.4691 0.59548,1.24452 0.2979,1.82782 -0.13915,0.27275 -0.52291,0.63669 -0.7883,0.74757 -0.28865,0.12061 -0.72545,0.14788 -1.02548,0.064 z"
       id="path3318"
       inkscape:connector-curvature="0"
       inkscape:export-filename="D:\Users\BvB\Documents\Code\Website\graphics\instagram_bubble.png"
       inkscape:export-xdpi="90"
       inkscape:export-ydpi="90" />
  </g>
</svg>
