<?xml version="1.0" encoding="UTF-8" standalone="no"?>
<svg
   xmlns:dc="http://purl.org/dc/elements/1.1/"
   xmlns:cc="http://creativecommons.org/ns#"
   xmlns:rdf="http://www.w3.org/1999/02/22-rdf-syntax-ns#"
   xmlns:svg="http://www.w3.org/2000/svg"
   xmlns="http://www.w3.org/2000/svg"
   xmlns:sodipodi="http://sodipodi.sourceforge.net/DTD/sodipodi-0.dtd"
   xmlns:inkscape="http://www.inkscape.org/namespaces/inkscape"
   width="21.336159"
   height="20.390148"
   id="svg3407"
   version="1.1"
   inkscape:version="1.0.1 (3bc2e813f5, 2020-09-07)"
   sodipodi:docname="linkedin.svg">
  <defs
     id="defs3409" />
  <sodipodi:namedview
     id="base"
     pagecolor="#ffffff"
     bordercolor="#666666"
     borderopacity="1.0"
     inkscape:pageopacity="0.0"
     inkscape:pageshadow="2"
     inkscape:zoom="0.35"
     inkscape:cx="-228.61763"
     inkscape:cy="-73.595681"
     inkscape:document-units="px"
     inkscape:current-layer="layer1"
     showgrid="false"
     inkscape:window-width="820"
     inkscape:window-height="426"
     inkscape:window-x="130"
     inkscape:window-y="130"
     inkscape:window-maximized="0"
     inkscape:document-rotation="0"
     fit-margin-top="0"
     fit-margin-left="0"
     fit-margin-right="0"
     fit-margin-bottom="0" />
  <metadata
     id="metadata3412">
    <rdf:RDF>
      <cc:Work
         rdf:about="">
        <dc:format>image/svg+xml</dc:format>
        <dc:type
           rdf:resource="http://purl.org/dc/dcmitype/StillImage" />
        <dc:title></dc:title>
      </cc:Work>
    </rdf:RDF>
  </metadata>
  <g
     inkscape:label="Layer 1"
     inkscape:groupmode="layer"
     id="layer1"
     transform="translate(-603.61763,-593.59568)">
    <path
       style="fill:#FFFFFF"
       d="m 604.05314,607.09811 v -6.88771 h 2.13757 2.13757 v 6.88771 6.88772 h -2.13757 -2.13757 z m 7.12523,0 v -6.88771 h 2.13757 c 1.87801,0 2.13757,0.12541 2.13757,1.03283 v 1.03283 l 1.09939,-1.03283 c 1.63498,-1.53599 5.20966,-1.44988 6.703,0.16146 1.38282,1.49209 1.69789,3.04443 1.69789,8.36538 v 4.21576 h -2.13755 -2.13757 l -0.007,-3.91888 c -0.004,-2.19285 -0.27067,-4.4419 -0.60566,-5.10641 -0.73638,-1.46074 -2.48274,-1.78016 -3.70165,-0.67707 -0.77401,0.70047 -0.91085,1.49122 -0.91085,5.26333 v 4.43903 h -2.13757 -2.13757 z m -6.81409,-9.65645 c -1.02178,-1.12906 -0.99537,-2.11984 0.0825,-3.09533 1.25443,-1.13525 2.79035,-0.96806 3.68765,0.4014 0.72079,1.10007 0.72079,1.275 0,2.37507 -0.9251,1.41187 -2.64907,1.55768 -3.77018,0.31886 z"
       id="path3899-4-3"
       inkscape:connector-curvature="0" />
  </g>
</svg>
