<?xml version="1.0" encoding="UTF-8" standalone="no"?>
<svg
   xmlns:dc="http://purl.org/dc/elements/1.1/"
   xmlns:cc="http://creativecommons.org/ns#"
   xmlns:rdf="http://www.w3.org/1999/02/22-rdf-syntax-ns#"
   xmlns:svg="http://www.w3.org/2000/svg"
   xmlns="http://www.w3.org/2000/svg"
   xmlns:sodipodi="http://sodipodi.sourceforge.net/DTD/sodipodi-0.dtd"
   xmlns:inkscape="http://www.inkscape.org/namespaces/inkscape"
   width="33.514919"
   height="33"
   id="svg3318"
   version="1.1"
   inkscape:version="1.0.1 (3bc2e813f5, 2020-09-07)"
   sodipodi:docname="twitter.svg">
  <defs
     id="defs3320" />
  <sodipodi:namedview
     id="base"
     pagecolor="#ffffff"
     bordercolor="#666666"
     borderopacity="1.0"
     inkscape:pageopacity="0.0"
     inkscape:pageshadow="2"
     inkscape:zoom="1.979899"
     inkscape:cx="20.32889"
     inkscape:cy="-49.352636"
     inkscape:document-units="px"
     inkscape:current-layer="layer1"
     showgrid="false"
     inkscape:window-width="1920"
     inkscape:window-height="1017"
     inkscape:window-x="-8"
     inkscape:window-y="-8"
     inkscape:window-maximized="1"
     inkscape:document-rotation="0"
     fit-margin-top="0"
     fit-margin-left="0"
     fit-margin-right="0"
     fit-margin-bottom="0" />
  <metadata
     id="metadata3323">
    <rdf:RDF>
      <cc:Work
         rdf:about="">
        <dc:format>image/svg+xml</dc:format>
        <dc:type
           rdf:resource="http://purl.org/dc/dcmitype/StillImage" />
        <dc:title></dc:title>
      </cc:Work>
    </rdf:RDF>
  </metadata>
  <g
     inkscape:label="Layer 1"
     inkscape:groupmode="layer"
     id="layer1"
     transform="translate(-354.67111,-650.16484)">
    <path
       inkscape:connector-curvature="0"
       class="st1"
       d="m 365.19889,680.41667 c 12.64689,0 19.56714,-10.48766 19.56714,-19.56713 0,-0.29506 0,-0.5901 -0.0133,-0.88515 1.34113,-0.96562 2.50791,-2.18604 3.4333,-3.56742 -1.23385,0.54987 -2.56157,0.91197 -3.95635,1.08632 1.4216,-0.84491 2.50792,-2.19945 3.03096,-3.80881 -1.32772,0.79127 -2.80296,1.35455 -4.37209,1.663 -1.26066,-1.34114 -3.04437,-2.17264 -5.01583,-2.17264 -3.79542,0 -6.88002,3.08461 -6.88002,6.88002 0,0.53644 0.0671,1.0595 0.17435,1.56913 -5.71323,-0.28165 -10.78271,-3.03097 -14.17578,-7.18847 -0.59009,1.01926 -0.92538,2.19945 -0.92538,3.46011 0,2.38722 1.22044,4.4928 3.05778,5.72664 -1.12655,-0.0403 -2.18603,-0.34869 -3.11143,-0.85832 0,0.0268 0,0.0536 0,0.0939 0,3.32601 2.37381,6.11555 5.51207,6.7459 -0.57669,0.16093 -1.18021,0.2414 -1.81053,0.2414 -0.44257,0 -0.87175,-0.0403 -1.2875,-0.12075 0.87174,2.7359 3.41989,4.72078 6.42404,4.77442 -2.36041,1.85077 -5.3243,2.95049 -8.54302,2.95049 -0.54988,0 -1.09973,-0.0268 -1.63619,-0.0939 3.03097,1.93123 6.65202,3.07119 10.5279,3.07119"
       id="path12-1-1"
       style="fill:#ffffff;fill-opacity:1" />
  </g>
</svg>
